<svg xmlns="http://www.w3.org/2000/svg" xml:space="preserve" viewBox="0 0 332.6 332.6"><path d="M317.3 132.6H281l-.5-.2c-3.7-8.8-5.8-14-9.3-22.3-.2-.5-.1-1 .3-1.4l25.3-25.3c6-6 6-15.7 0-21.6l-26-26c-6-6-15.7-6-21.6 0l-24.7 24.7c-.4.4-.9.5-1.4.3-8.3-3.4-14.3-5.9-22.4-9.3-.5-.2-.8-.7-.8-1.2V15.4C200 6.8 193.1 0 184.7 0h-36.8c-8.4 0-15.3 6.8-15.3 15.3v34.2c0 .5-.3.9-.7 1.1-7.7 3.7-13.8 6.6-21.9 10.5-.5.2-1.1.1-1.4-.2L83.3 35.7c-6-6-15.7-6-21.6 0l-26 26c-6 6-6 15.7 0 21.6l25.1 25.1c.4.4.5.9.3 1.4-3.2 8.3-5.2 13.2-8.6 22-.2.5-.7.8-1.2.8h-36c-8.4 0-15.3 6.8-15.3 15.3v36.8c0 8.4 6.8 15.3 15.3 15.3h36.1c.5 0 1 .3 1.2.8 3.4 8.7 5.3 13.7 8.5 22 .2.5.1 1-.3 1.4l-25.1 25.1c-6 6-6 15.7 0 21.6l26 26c6 6 15.7 6 21.6 0l25.3-25.3c.4-.4 1-.5 1.4-.2 8 3.8 14.1 6.7 21.8 10.4.4.2.7.7.7 1.1v34.4c0 8.4 6.8 15.3 15.3 15.3h36.8c8.4 0 15.3-6.8 15.3-15.3v-35.1c0-.5.3-1 .8-1.2 7.9-3.3 14.3-5.9 22.3-9.2.5-.2 1-.1 1.4.3l24.8 24.8c6 6 15.7 6 21.6 0l26-26c6-6 6-15.7 0-21.6l-25.4-25.4c-.4-.4-.5-.9-.3-1.4 3.5-8.4 5.6-13.6 9.3-22.4h36.8c8.4 0 15.3-6.8 15.3-15.3V148c.1-8.6-6.8-15.4-15.2-15.4m-151 100.3c-36.8 0-66.7-29.9-66.7-66.7s29.9-66.7 66.7-66.7 66.7 29.9 66.7 66.7-29.9 66.7-66.7 66.7"/></svg>